<?xml version="1.0" encoding="utf-8"?>
<!-- Generator: Adobe Illustrator 19.1.0, SVG Export Plug-In . SVG Version: 6.00 Build 0)  -->
<svg version="1.1" id="Layer_2_xA0_Bild_1_" xmlns="http://www.w3.org/2000/svg" xmlns:xlink="http://www.w3.org/1999/xlink"
	 x="0px" y="0px" viewBox="0 0 245.8 245.8" style="enable-background:new 0 0 245.8 245.8;" xml:space="preserve">
<style type="text/css">
	.st0{fill:#FFFFFF;}
</style>
<g>
	<g>
		<path d="M44.6,148.3c0-0.5,0-1,0-1.4c0.1-0.4,0.2-0.8,0.2-1.2c0-8.9,1.1-17.7,2.9-26.4c4.1-18.8,11.8-35.9,23.3-51.3
			c1.4-1.9,3-3.8,4.5-5.7c0.1,0,0.2,0.1,0.3,0.1c0,2.5-0.2,5.1,0,7.6c1,9,4.9,16.6,11.7,22.6c7.4,6.6,16.1,9.3,26,8.6
			c8.7-0.7,15.9-4.3,21.5-11c6-7.1,8.5-15.5,8.5-24.7c0-9.3-1.1-18.4-2.9-27.5c-1.2-6.2-2.6-12.4-3.9-18.6c0.2,0.1,0.4,0.3,0.7,0.5
			c10.6,8.7,20.1,18.5,28.4,29.5c14.7,19.5,24.7,41.1,29.8,65c1.8,8.2,2.8,16.5,3.2,24.9c0.3,6.6,0.5,13.1-0.6,19.6
			c-4.6,27.1-19.3,46.8-44.1,58.8c-13.4,6.4-27.7,8.3-42.4,6.4c-9.6-1.2-18.6-4.2-27-8.9c-12.4-6.9-22.2-16.4-29.4-28.6
			c-5.9-10.1-9.4-21-10.3-32.8C44.9,152,44.8,150.1,44.6,148.3z M159.9,110.5c-0.4,0.3-0.5,0.3-0.5,0.4c-2.8,3.7-6.2,6.9-9.9,9.7
			c-9.4,7-20,11.3-31.3,14.1c-3.7,0.9-7.5,1.7-11.1,3.1c-13.1,5-20.5,16.8-19,30.7c1.2,11.3,7.3,19.3,17.4,24.3
			c6.3,3.1,13.1,3.7,20,2.6c19.1-3.2,31.8-14.2,38-32.5c2.1-6.1,2.1-12.4,1.9-18.7c-0.3-8.1-1.3-16.1-3.1-24
			C161.6,117,160.7,113.8,159.9,110.5z"/>
		<path class="st0" d="M44.6,148.3c0.1,1.8,0.3,3.6,0.4,5.5c0.9,11.7,4.3,22.6,10.3,32.8c7.2,12.2,17,21.7,29.4,28.6
			c8.4,4.7,17.5,7.6,27,8.9c14.8,1.9,29,0.1,42.4-6.4c24.8-11.9,39.5-31.6,44.1-58.8c1.1-6.5,0.9-13.1,0.6-19.6
			c-0.4-8.4-1.5-16.7-3.2-24.9c-5.1-23.9-15.1-45.5-29.8-65c-8.3-11-17.8-20.8-28.4-29.5c-0.2-0.2-0.5-0.4-0.7-0.5
			c1.3,6.2,2.7,12.3,3.9,18.6c1.7,9.1,2.9,18.2,2.9,27.5c0,9.2-2.5,17.6-8.5,24.7c-5.6,6.7-12.8,10.3-21.5,11
			c-9.9,0.8-18.6-2-26-8.6C80.8,86.6,76.9,79,75.9,70c-0.3-2.5,0-5.1,0-7.6c-0.1,0-0.2-0.1-0.3-0.1c-1.5,1.9-3,3.8-4.5,5.7
			c-11.5,15.4-19.2,32.6-23.3,51.3c-1.9,8.7-2.9,17.5-2.9,26.4c0,0.4-0.1,0.8-0.2,1.2c0-42.6,0-85.3,0-127.9c51.5,0,103,0,154.5,0
			c0,68.7,0,137.4,0,206.1c-51.5,0-103,0-154.5,0C44.6,199.5,44.6,173.9,44.6,148.3z"/>
		<path class="st0" d="M159.9,110.5c0.8,3.3,1.7,6.5,2.4,9.7c1.8,7.9,2.8,15.9,3.1,24c0.2,6.3,0.2,12.6-1.9,18.7
			c-6.2,18.4-18.9,29.3-38,32.5c-6.9,1.2-13.7,0.6-20-2.6c-10.1-5-16.1-13.1-17.4-24.3c-1.5-13.8,5.9-25.7,19-30.7
			c3.6-1.4,7.3-2.2,11.1-3.1c11.3-2.8,21.9-7,31.3-14.1c3.7-2.8,7.1-6,9.9-9.7C159.4,110.8,159.5,110.8,159.9,110.5z"/>
	</g>
</g>
</svg>
